<svg version="1.1" id="Layer_1" xmlns="http://www.w3.org/2000/svg" xmlns:xlink="http://www.w3.org/1999/xlink" x="0px" y="0px"
	 viewBox="0 0 612 792" style="enable-background:new 0 0 612 792;" xml:space="preserve">
<style type="text/css">
	.black{fill:#1e1e1e;}
	.white{fill: #FFF;}
	.orange{fill: #ffc180;}
	.green{fill: #84ce7e;}
</style>
<g>
	<path class=".white" d="M223.4,273c-6.7-8.5-3.5-17.7-2.5-27.1c-3.7,0.3-7.1,0.4-10.6,0.8c-31.1,3.3-60.3-3-88.2-16.6
		c-26.6-13-39.4-35.2-43.5-63.5c-2.1-14.4-2.5-28.9,0.7-43.3c6.8-30.6,32.5-47.8,63.7-43.3c23.1,3.3,39.4,15.8,50.9,35.5
		c0.7,1.3,1.4,2.5,2.9,5.2c0-2.7,0-3.9,0-5.1c-0.8-21.1,1.2-42,7.8-62.2c7.4-22.8,21-40.1,44.9-47.2c16.1-4.8,32-3.5,47.4,3.3
		c18.2,8.1,26.1,23.8,28.4,42.4c1.6,13.3,1.4,26.9,1.7,40.4c0.2,7.8,0,15.6,0,24.4c1.1-2,1.9-3.4,2.7-4.8
		C341.2,89.8,356,70.2,376,55c18.9-14.4,39.6-22.8,64-20.5c33.6,3.1,59.6,30.2,60.8,63.9c0.7,21.5-4.4,41.3-16.2,59.3
		c-10.6,16.3-23.5,30.6-37.8,43.7c-15.7,14.3-34.9,20.2-55.1,24.1c-8,1.6-15.8,3.9-24.3,6c10.1,13.6,8.5,25.3-5,35
		c9.3,2.5,18.1,4.8,26.8,7.1c42.8,11.1,75.1,35.2,95.2,75.2c12.4,24.6,20.1,50.7,26.2,77.4c6.6,28.9,9.3,58.2,11.1,87.6
		c0.4,6.8,1.8,13.5,3,20.2c0.3,1.4,1.7,2.8,2.9,3.9c6.3,5.7,13,11,19,17c6.8,6.6,13.7,13.3,19.3,20.8c7.8,10.4,4.3,19.3-8.4,21.6
		c-7.6,1.3-15.7,0.3-24.2,0.3c-0.5,5-0.9,11.5-1.8,17.8c-5.7,44.8-19.2,87.1-41.8,126.3c-7.3,12.6-16.2,24.1-27.3,33.6
		c-10.6,9.1-17.7,8.4-26.6-2.5c-0.5-0.6-1.2-1.2-1.5-2c-4.1-9.3-11.9-10.7-21.1-11.2c-33.4-2.1-66.6,0-99.9,2.4
		c-26.3,1.9-52.6,3.2-78.9,1c-6.1-0.5-12.4-0.2-18.5-0.8c-5.1-0.5-7.7,1.6-9.1,6.2c-1.2,3.8-2.6,7.5-4.1,11.3
		c-4.1,10.1-11.4,11.7-18.7,3.5c-17.2-19.4-28.6-42.1-36.5-66.6c-7.8-24.1-10.6-49.1-12.8-74.2c-1.3-14.6-2.2-29.2-3.3-43.9
		c-0.1-0.9-0.3-1.9-0.6-3.5c-1.7,1.4-2.9,2.5-4.2,3.4c-3.1,2.2-6.1,4.7-9.5,6.5c-7.8,4.2-14.9,3.5-19.9-1.3
		c-5.4-5.2-6.4-12.3-2.8-20.3c4.2-9.4,10.8-17,19.2-22.6c5.3-3.5,6.3-7,5.3-13.1c-4.8-28.5-4.5-57.2,0-85.6
		c4.9-30.9,10.4-61.8,16.8-92.4c5.5-26.2,19-48.6,36.7-68.4c12.6-14.1,28.8-22.3,46.8-27.2C220.5,273.9,221.7,273.5,223.4,273z
		 M343.9,272.4c6.4-6.8,12.5-12.9,18-19.4c3.2-3.8,1.7-8.2-0.8-12.1c-2.3-3.6-5.3-4.6-9.8-3.8c-8,1.3-15.5,3.3-22.5,7.5
		c-3.6,2.2-6.9,0.7-8.9-2.8c-1.5-2.6-2.2-5.6-3.6-8.2c-2.2-3.9-4.5-7.8-7.3-11.2c-2.3-2.7-5.2-3.3-7.9,0.2c-1.3,1.6-3.3,3.1-5.2,3.7
		c-11,3.4-16.6,9.7-13.9,21.9c0.4,1.7-2.4,5.5-4.3,6c-1.8,0.4-5-1.8-6.5-3.6c-1.6-2.1-2.1-5.2-3-7.9c-1.3-3.7-3.8-4.6-7.5-3.8
		c-7.8,1.8-15.7,3.1-23.4,5.2c-2.2,0.6-4.9,2.5-5.8,4.6c-4.4,9.5-2.2,16.3,6.4,22.2c0.8,0.6,1.6,1.1,2.5,1.6
		c2.9,1.5,4.8,3.8,3.9,7.2c-0.9,3.6-3.8,4.9-7.2,5c-22.1,0.4-40.5,9.5-55.2,25.3c-15.5,16.6-27.4,35.8-33,58.1
		c-4.6,18.2-8.1,36.7-11.6,55.2c-5.8,31-10.9,62.1-9.3,93.7c0.7,13.1,2.6,26.2,4.2,39.2c0.6,5-1,8-5.6,10.3
		c-9.7,4.8-17,12.2-21.5,22.1c-0.8,1.9,0.1,4.5,0.3,6.8c2.2-0.1,4.9,0.5,6.4-0.5c5.3-3.7,10.4-7.7,15.2-12c3.8-3.4,7.6-5.6,12.6-3.7
		c4.7,1.9,4.6,6.4,5,10.6c2.4,28.5,4.2,57.1,7.5,85.5c3.7,32.1,14.5,61.8,33.1,88.5c1.8,2.5,3.8,4.9,6.1,8c2.2-5.2,4.2-9.5,6-14
		c2.2-5.6,6.3-8.6,12.3-8.4c12.3,0.3,24.6,1.2,36.9,0.9c29.6-0.7,59.3-1.5,88.9-3.2c30.8-1.8,61.6-2.3,92.4,0.4
		c4.6,0.4,8.2,2.3,10.9,6.2c2.5,3.5,5.2,6.9,7.7,10.5c2.4,3.5,4.8,3.8,7.5,0.6c7.5-8.9,16.1-17.1,22.1-27
		c24.3-40.3,37.6-84.4,42.6-131c0.7-6.6-0.2-13.3,0-20c0.2-6.1,4.7-9,10.4-6.8c2.6,1,5.1,2.5,7.7,3.6c6.4,2.7,12.8,4.1,20.8,1.1
		c-4.1-4.9-7.5-9.4-11.4-13.3c-6.4-6.3-13.4-12-19.9-18.3c-5.5-5.3-11.7-10.3-13.3-18.3c-1.6-7.8-2.6-15.7-3.4-23.6
		c-1.8-16.4-2.7-32.9-5-49.2c-4.7-33.1-12.3-65.4-25.6-96.2c-17.5-40.3-46.3-67.8-89.1-79.7c-13.5-3.7-27-7.2-40.4-11
		C347.1,274.6,345.3,273.2,343.9,272.4z M488.5,110.6c0.2-34.8-13.9-54.5-39.9-62.1c-17.9-5.3-35-2.1-51.1,6.8
		c-28.6,15.9-47.1,40.6-60.8,69.6c-7.1,15-11.2,30.6-11,47.3c0,4.8-0.7,9.7-1.7,14.4c-2.7,12.3-0.6,24.1,2.6,35.9
		c1,3.6,3.3,5.9,7.3,5.1c11.7-2.4,23.3-4.7,34.9-7.4c8.6-2,17-4.9,25.6-6.7c17-3.7,33.4-9.3,45.6-22.2
		c11.9-12.5,23.4-25.6,33.7-39.4C484.4,137.7,488.4,120.9,488.5,110.6z M316.2,102.5c0.3,0,0.5,0,0.8-0.1c-0.9-15.9-1.1-32-2.8-47.8
		c-1.6-15-7.4-28.1-22.4-34.8c-11.8-5.3-24.2-6.2-36.6-3.2c-20.3,4.9-32,19-38.3,37.9c-9.3,27.7-10.6,56.1-4.6,84.8
		c4.9,23.6,16.8,42.6,38.4,54.6c17.1,9.5,35.2,14.9,55.1,10.8c4.1-0.8,4.6-2.6,4.9-6.4c0.8-14.4,1-29,3.5-43.2
		c1.9-10.6,2.4-21.1,2.3-31.7C316.1,116.4,316.2,109.4,316.2,102.5z M280,219.1c-0.1-0.4-0.2-0.8-0.2-1.1c-1.9-0.4-3.8-0.8-5.7-1.2
		c-31.7-8-56.3-25.1-68.4-56.4c-5.1-13.3-12.2-25.4-19.1-37.6c-9.8-17.3-24.1-28.8-44.7-31.7C115.5,87.4,94,102.4,90,128.3
		c-2.7,17.5-1.3,34.8,3.6,51.9c4.8,16.6,14.6,29,29.7,37.2c21.2,11.4,43.9,17.6,67.9,17.9c20.4,0.3,40.5-2.7,60.3-7.7
		C261.1,225.2,270.5,222,280,219.1z"/>
	<g>
		<path class="green" d="M489.1,109.8c-0.2,10.3-4.2,27.1-14.8,41.2c-10.4,13.8-21.8,26.9-33.7,39.4c-12.3,12.9-28.6,18.4-45.6,22.2
			c-8.6,1.9-17,4.8-25.6,6.7c-11.6,2.7-23.3,5-34.9,7.4c-4,0.8-6.3-1.4-7.3-5.1c-3.1-11.8-5.3-23.6-2.6-35.9c1-4.7,1.7-9.6,1.7-14.4
			c-0.1-16.7,4-32.3,11-47.3c13.7-28.9,32.2-53.7,60.8-69.6c16.1-9,33.2-12.1,51.1-6.8C475.3,55.3,489.4,75,489.1,109.8z"/>
		<g>
			<path class="green" d="M316.8,101.7c0,7-0.1,14,0,21c0.1,10.6-0.4,21.1-2.3,31.7c-2.5,14.2-2.7,28.7-3.5,43.2
				c-0.2,3.8-0.8,5.5-4.9,6.4c-19.9,4-37.9-1.3-55.1-10.8c-21.6-12-33.4-31-38.4-54.6c-6-28.6-4.6-57,4.6-84.8
				c6.3-18.9,18.1-33,38.3-37.9c12.4-3,24.8-2.1,36.6,3.2c15,6.7,20.8,19.8,22.4,34.8c1.7,15.9,1.9,31.9,2.8,47.8
				C317.3,101.6,317,101.6,316.8,101.7z"/>
			<g>
				<path class="green" d="M280.6,218.3c-9.5,2.9-18.9,6.1-28.5,8.5c-19.8,5-39.9,8-60.3,7.7c-24.1-0.4-46.7-6.5-67.9-17.9
					c-15.1-8.2-25-20.6-29.7-37.2c-4.9-17.1-6.3-34.4-3.6-51.9c4-25.8,25.5-40.9,51.8-37.2c20.6,2.9,34.9,14.4,44.7,31.7
					c6.9,12.2,13.9,24.3,19.1,37.6c12.1,31.3,36.7,48.4,68.4,56.4c1.9,0.5,3.8,0.8,5.7,1.2C280.4,217.5,280.5,217.9,280.6,218.3z"/>
				<g>
					<path class="orange" d="M344.5,271.6c1.4,0.8,3.2,2.2,5.2,2.8c13.5,3.8,27,7.3,40.4,11c42.8,11.9,71.6,39.4,89.1,79.7
						c13.4,30.8,21,63.2,25.6,96.2c2.3,16.3,3.2,32.8,5,49.2c0.9,7.9,1.9,15.8,3.5,23.6c1.6,7.9,7.8,13,13.3,18.3
						c6.5,6.2,13.5,12,19.9,18.3c4,3.9,7.3,8.4,11.4,13.3c-7.9,3-14.4,1.7-20.8-1.1c-2.6-1.1-5-2.7-7.7-3.6
						c-5.7-2.2-10.1,0.7-10.4,6.8c-0.2,6.7,0.7,13.4,0,20c-5,46.6-18.3,90.7-42.6,131c-5.9,9.8-14.6,18.1-22.1,27
						c-2.7,3.2-5.1,2.9-7.5-0.6c-2.4-3.6-5.2-6.9-7.7-10.5c-2.7-3.8-6.3-5.8-10.9-6.2c-30.8-2.7-61.5-2.2-92.4-0.4
						c-29.6,1.7-59.2,2.5-88.9,3.2c-12.3,0.3-24.6-0.7-36.9-0.9c-6-0.1-10.1,2.8-12.3,8.4c-1.8,4.4-3.8,8.8-6,14
						c-2.4-3-4.3-5.4-6.1-8c-18.6-26.7-29.4-56.4-33.2-88.5c-3.3-28.4-5.1-57-7.5-85.5c-0.4-4.2-0.2-8.7-5-10.6
						c-5-2-8.8,0.2-12.6,3.7c-4.8,4.3-9.9,8.4-15.2,12c-1.5,1.1-4.3,0.4-6.4,0.5c-0.1-2.3-1.1-5-0.3-6.8
						c4.5-9.9,11.8-17.3,21.5-22.1c4.7-2.3,6.3-5.3,5.6-10.3c-1.6-13-3.6-26.1-4.2-39.2c-1.6-31.7,3.5-62.8,9.3-93.7
						c3.5-18.5,7-37,11.6-55.2c5.6-22.3,17.5-41.5,33-58.1c14.7-15.8,33.1-24.8,55.2-25.3c3.5-0.1,6.3-1.3,7.2-5
						c0.9-3.5-1-5.7-3.9-7.2c-0.9-0.5-1.7-1-2.5-1.6c-8.6-5.9-10.7-12.6-6.4-22.2c0.9-2,3.6-4,5.8-4.6c7.7-2.1,15.6-3.4,23.4-5.2
						c3.7-0.8,6.2,0.1,7.5,3.8c0.9,2.7,1.4,5.8,3,7.9c1.5,1.9,4.7,4.1,6.5,3.6c1.9-0.4,4.7-4.3,4.3-6c-2.7-12.2,2.8-18.6,13.9-21.9
						c2-0.6,4-2.1,5.2-3.7c2.7-3.5,5.7-2.9,7.9-0.2c2.9,3.4,5.1,7.3,7.3,11.2c1.5,2.6,2.2,5.6,3.6,8.2c2,3.5,5.2,5,8.9,2.8
						c7-4.2,14.5-6.2,22.5-7.5c4.5-0.8,7.5,0.2,9.8,3.8c2.5,3.9,4,8.3,0.8,12.1C357,258.7,350.9,264.8,344.5,271.6z M301.1,458.1
						c16.2,12.3,22.8,12.2,38.9-0.3c0.8,0.5,1.6,1,2.4,1.6c10.2,7,20.4,4.6,25.6-6.6c2.4-5.2,3.7-11,4.5-16.7
						c1.8-13-2.5-25-6.9-36.9c-3-8.1-6.9-15.6-13.7-21.2c-8.6-7-17.4-5.5-23.2,3.9c-1.3,2.1-2.4,4.2-3.9,6.8
						c-5.3-6.6-11.4-11.1-19.7-11c-8.1,0.2-14.3,4.6-19.9,10.2c-2.1-1.9-3.8-3.5-5.6-4.9c-7.4-5.6-15.4-3.7-19.5,4.6
						c-0.9,1.8-1.7,3.7-2,5.6c-3.7,19.5-3.1,38.8,3.8,57.6c1.6,4.4,4.4,8.7,7.6,12.2c8,8.7,18.4,8.7,26.8,0.4
						C297.9,461.9,299.3,460,301.1,458.1z M277.7,361.7c3.3,0.4,6.6,0.8,9.9,1.1c3.5,0.3,7.1,0,7.9-4.2c0.9-4.4-2.3-6.2-5.9-7.3
						c-16-4.5-29.6-0.8-40.7,11.7c-4.5,5-5.2,9.6-2.1,12.3c3,2.5,6.1,1.4,10.9-3.8C263.1,365.7,269.2,361.4,277.7,361.7z
						 M343.5,343.6c-4.5,1-9.1,1.8-13.5,3.2c-3.6,1.2-6.2,3.9-4.7,8c1.5,4.1,4.9,3.8,8.4,2.7c10.4-3.2,19.7-1.1,27.9,6.1
						c1.5,1.3,3,2.6,4.7,3.7c2.7,1.8,5.7,2.4,8.1-0.3c2.4-2.7,1.9-5.8-0.3-8.2C365.9,350,356.2,343.9,343.5,343.6z"/>
					<path class="black" d="M302.1,458.8c-1.8,2-3.2,3.8-4.9,5.4c-8.4,8.3-18.8,8.3-26.8-0.4c-3.2-3.5-6-7.8-7.6-12.2c-6.8-18.8-7.5-38.1-3.8-57.6
						c0.4-1.9,1.2-3.8,2-5.6c4.1-8.3,12.1-10.2,19.5-4.6c1.8,1.4,3.5,3,5.6,4.9c5.6-5.6,11.8-10,19.9-10.2c8.4-0.2,14.4,4.3,19.7,11
						c1.5-2.6,2.6-4.7,3.9-6.8c5.8-9.4,14.6-11,23.2-3.9c6.8,5.6,10.7,13.1,13.7,21.2c4.4,11.9,8.7,24,6.9,36.9
						c-0.8,5.7-2.1,11.5-4.5,16.7c-5.2,11.2-15.4,13.6-25.6,6.6c-0.8-0.5-1.6-1.1-2.4-1.6C324.8,471,318.2,471.1,302.1,458.8z"/>
					<path class="black" d="M274.7,364.3c-8.5-0.3-14.6,4-20,9.8c-4.8,5.2-7.9,6.3-10.9,3.8c-3.2-2.6-2.4-7.3,2.1-12.3
						c11.1-12.4,24.7-16.2,40.7-11.7c3.6,1,6.8,2.9,5.9,7.3c-0.8,4.1-4.4,4.5-7.9,4.2C281.3,365.2,278,364.7,274.7,364.3z"/>
					<path class="black" d="M342.4,348c12.8,0.3,22.4,6.4,30.6,15.3c2.2,2.4,2.7,5.5,0.3,8.2c-2.5,2.7-5.4,2.1-8.1,0.3c-1.7-1.1-3.2-2.4-4.7-3.7
						c-8.1-7.2-17.4-9.4-27.9-6.1c-3.5,1.1-6.9,1.4-8.4-2.7c-1.5-4.2,1.2-6.9,4.7-8C333.3,349.7,337.9,349,342.4,348z"/>
				</g>
			</g>
		</g>
	</g>
</g>
</svg>